<svg width="347" height="40" viewBox="0 0 347 40" fill="none" xmlns="http://www.w3.org/2000/svg">
<mask id="path-1-outside-1_1690_14413" maskUnits="userSpaceOnUse" x="-0.0966797" y="1.22559" width="40" height="39" fill="black">
<rect fill="white" x="-0.0966797" y="1.22559" width="40" height="39"/>
<path d="M3.98926 38.9463H0.90332V35.3291H3.98926V38.9463ZM38.4102 38.9463H35.3242V35.3291H38.4102V38.9463ZM19.6289 38.8857H13.4561V31.6514H19.6289V38.8857ZM30.127 36.4736H26.0127V31.6514H30.127V36.4736ZM13.3535 31.5283H7.18066V24.2949H13.3535V31.5283ZM25.9082 31.5283H19.7354V24.2949H25.9082V31.5283ZM7.07617 24.1729H0.90332V16.9395H7.07617V24.1729ZM32.1846 24.1729H26.0127V16.9395H32.1846V24.1729ZM13.3535 16.8154H7.18066V9.58105H13.3535V16.8154ZM25.9082 16.8154H19.7354V9.58105H25.9082V16.8154ZM30.127 9.50098H26.0127V4.67871H30.127V9.50098ZM19.6289 9.45898H13.4561V2.22559H19.6289V9.45898ZM3.98926 5.84277H0.90332V2.22559H3.98926V5.84277ZM38.4102 5.84277H35.3242V2.22559H38.4102V5.84277Z"/>
</mask>
<path d="M3.98926 38.9463H0.90332V35.3291H3.98926V38.9463ZM38.4102 38.9463H35.3242V35.3291H38.4102V38.9463ZM19.6289 38.8857H13.4561V31.6514H19.6289V38.8857ZM30.127 36.4736H26.0127V31.6514H30.127V36.4736ZM13.3535 31.5283H7.18066V24.2949H13.3535V31.5283ZM25.9082 31.5283H19.7354V24.2949H25.9082V31.5283ZM7.07617 24.1729H0.90332V16.9395H7.07617V24.1729ZM32.1846 24.1729H26.0127V16.9395H32.1846V24.1729ZM13.3535 16.8154H7.18066V9.58105H13.3535V16.8154ZM25.9082 16.8154H19.7354V9.58105H25.9082V16.8154ZM30.127 9.50098H26.0127V4.67871H30.127V9.50098ZM19.6289 9.45898H13.4561V2.22559H19.6289V9.45898ZM3.98926 5.84277H0.90332V2.22559H3.98926V5.84277ZM38.4102 5.84277H35.3242V2.22559H38.4102V5.84277Z" fill="#CFCFCF"/>
<path d="M3.98926 38.9463V39.8493L4.89223 38.9463H3.98926ZM0.90332 38.9463H0.000347972L0.90332 39.8493V38.9463ZM0.90332 35.3291V34.4261L0.000347972 35.3291H0.90332ZM3.98926 35.3291H4.89223L3.98926 34.4261V35.3291ZM38.4102 38.9463V39.8493L39.3131 38.9463H38.4102ZM35.3242 38.9463H34.4212L35.3242 39.8493V38.9463ZM35.3242 35.3291V34.4261L34.4212 35.3291H35.3242ZM38.4102 35.3291H39.3131L38.4102 34.4261V35.3291ZM19.6289 38.8857V39.7887L20.5319 38.8857H19.6289ZM13.4561 38.8857H12.5531L13.4561 39.7887V38.8857ZM13.4561 31.6514V30.7484L12.5531 31.6514H13.4561ZM19.6289 31.6514H20.5319L19.6289 30.7484V31.6514ZM30.127 36.4736V37.3766L31.0299 36.4736H30.127ZM26.0127 36.4736H25.1097L26.0127 37.3766V36.4736ZM26.0127 31.6514V30.7484L25.1097 31.6514H26.0127ZM30.127 31.6514H31.0299L30.127 30.7484V31.6514ZM13.3535 31.5283V32.4313L14.2565 31.5283H13.3535ZM7.18066 31.5283H6.27769L7.18066 32.4313V31.5283ZM7.18066 24.2949V23.3919L6.27769 24.2949H7.18066ZM13.3535 24.2949H14.2565L13.3535 23.3919V24.2949ZM25.9082 31.5283V32.4313L26.8112 31.5283H25.9082ZM19.7354 31.5283H18.8324L19.7354 32.4313V31.5283ZM19.7354 24.2949V23.3919L18.8324 24.2949H19.7354ZM25.9082 24.2949H26.8112L25.9082 23.3919V24.2949ZM7.07617 24.1729V25.0758L7.97914 24.1729H7.07617ZM0.90332 24.1729H0.000347972L0.90332 25.0758V24.1729ZM0.90332 16.9395V16.0365L0.000347972 16.9395H0.90332ZM7.07617 16.9395H7.97914L7.07617 16.0365V16.9395ZM32.1846 24.1729V25.0758L33.0875 24.1729H32.1846ZM26.0127 24.1729H25.1097L26.0127 25.0758V24.1729ZM26.0127 16.9395V16.0365L25.1097 16.9395H26.0127ZM32.1846 16.9395H33.0875L32.1846 16.0365V16.9395ZM13.3535 16.8154V17.7184L14.2565 16.8154H13.3535ZM7.18066 16.8154H6.27769L7.18066 17.7184V16.8154ZM7.18066 9.58105V8.67808L6.27769 9.58105H7.18066ZM13.3535 9.58105H14.2565L13.3535 8.67808V9.58105ZM25.9082 16.8154V17.7184L26.8112 16.8154H25.9082ZM19.7354 16.8154H18.8324L19.7354 17.7184V16.8154ZM19.7354 9.58105V8.67808L18.8324 9.58105H19.7354ZM25.9082 9.58105H26.8112L25.9082 8.67808V9.58105ZM30.127 9.50098V10.4039L31.0299 9.50098H30.127ZM26.0127 9.50098H25.1097L26.0127 10.4039V9.50098ZM26.0127 4.67871V3.77574L25.1097 4.67871H26.0127ZM30.127 4.67871H31.0299L30.127 3.77574V4.67871ZM19.6289 9.45898V10.362L20.5319 9.45898H19.6289ZM13.4561 9.45898H12.5531L13.4561 10.362V9.45898ZM13.4561 2.22559V1.32261L12.5531 2.22559H13.4561ZM19.6289 2.22559H20.5319L19.6289 1.32261V2.22559ZM3.98926 5.84277V6.74575L4.89223 5.84277H3.98926ZM0.90332 5.84277H0.000347972L0.90332 6.74575V5.84277ZM0.90332 2.22559V1.32261L0.000347972 2.22559H0.90332ZM3.98926 2.22559H4.89223L3.98926 1.32261V2.22559ZM38.4102 5.84277V6.74575L39.3131 5.84277H38.4102ZM35.3242 5.84277H34.4212L35.3242 6.74575V5.84277ZM35.3242 2.22559V1.32261L34.4212 2.22559H35.3242ZM38.4102 2.22559H39.3131L38.4102 1.32261V2.22559ZM3.98926 38.9463V38.0433H0.90332V38.9463V39.8493H3.98926V38.9463ZM0.90332 38.9463H1.80629V35.3291H0.90332H0.000347972V38.9463H0.90332ZM0.90332 35.3291V36.2321H3.98926V35.3291V34.4261H0.90332V35.3291ZM3.98926 35.3291H3.08629V38.9463H3.98926H4.89223V35.3291H3.98926ZM38.4102 38.9463V38.0433H35.3242V38.9463V39.8493H38.4102V38.9463ZM35.3242 38.9463H36.2272V35.3291H35.3242H34.4212V38.9463H35.3242ZM35.3242 35.3291V36.2321H38.4102V35.3291V34.4261H35.3242V35.3291ZM38.4102 35.3291H37.5072V38.9463H38.4102H39.3131V35.3291H38.4102ZM19.6289 38.8857V37.9828H13.4561V38.8857V39.7887H19.6289V38.8857ZM13.4561 38.8857H14.359V31.6514H13.4561H12.5531V38.8857H13.4561ZM13.4561 31.6514V32.5543H19.6289V31.6514V30.7484H13.4561V31.6514ZM19.6289 31.6514H18.7259V38.8857H19.6289H20.5319V31.6514H19.6289ZM30.127 36.4736V35.5707H26.0127V36.4736V37.3766H30.127V36.4736ZM26.0127 36.4736H26.9157V31.6514H26.0127H25.1097V36.4736H26.0127ZM26.0127 31.6514V32.5543H30.127V31.6514V30.7484H26.0127V31.6514ZM30.127 31.6514H29.224V36.4736H30.127H31.0299V31.6514H30.127ZM13.3535 31.5283V30.6253H7.18066V31.5283V32.4313H13.3535V31.5283ZM7.18066 31.5283H8.08364V24.2949H7.18066H6.27769V31.5283H7.18066ZM7.18066 24.2949V25.1979H13.3535V24.2949V23.3919H7.18066V24.2949ZM13.3535 24.2949H12.4505V31.5283H13.3535H14.2565V24.2949H13.3535ZM25.9082 31.5283V30.6253H19.7354V31.5283V32.4313H25.9082V31.5283ZM19.7354 31.5283H20.6383V24.2949H19.7354H18.8324V31.5283H19.7354ZM19.7354 24.2949V25.1979H25.9082V24.2949V23.3919H19.7354V24.2949ZM25.9082 24.2949H25.0052V31.5283H25.9082H26.8112V24.2949H25.9082ZM7.07617 24.1729V23.2699H0.90332V24.1729V25.0758H7.07617V24.1729ZM0.90332 24.1729H1.80629V16.9395H0.90332H0.000347972V24.1729H0.90332ZM0.90332 16.9395V17.8424H7.07617V16.9395V16.0365H0.90332V16.9395ZM7.07617 16.9395H6.1732V24.1729H7.07617H7.97914V16.9395H7.07617ZM32.1846 24.1729V23.2699H26.0127V24.1729V25.0758H32.1846V24.1729ZM26.0127 24.1729H26.9157V16.9395H26.0127H25.1097V24.1729H26.0127ZM26.0127 16.9395V17.8424H32.1846V16.9395V16.0365H26.0127V16.9395ZM32.1846 16.9395H31.2816V24.1729H32.1846H33.0875V16.9395H32.1846ZM13.3535 16.8154V15.9125H7.18066V16.8154V17.7184H13.3535V16.8154ZM7.18066 16.8154H8.08364V9.58105H7.18066H6.27769V16.8154H7.18066ZM7.18066 9.58105V10.484H13.3535V9.58105V8.67808H7.18066V9.58105ZM13.3535 9.58105H12.4505V16.8154H13.3535H14.2565V9.58105H13.3535ZM25.9082 16.8154V15.9125H19.7354V16.8154V17.7184H25.9082V16.8154ZM19.7354 16.8154H20.6383V9.58105H19.7354H18.8324V16.8154H19.7354ZM19.7354 9.58105V10.484H25.9082V9.58105V8.67808H19.7354V9.58105ZM25.9082 9.58105H25.0052V16.8154H25.9082H26.8112V9.58105H25.9082ZM30.127 9.50098V8.598H26.0127V9.50098V10.4039H30.127V9.50098ZM26.0127 9.50098H26.9157V4.67871H26.0127H25.1097V9.50098H26.0127ZM26.0127 4.67871V5.58168H30.127V4.67871V3.77574H26.0127V4.67871ZM30.127 4.67871H29.224V9.50098H30.127H31.0299V4.67871H30.127ZM19.6289 9.45898V8.55601H13.4561V9.45898V10.362H19.6289V9.45898ZM13.4561 9.45898H14.359V2.22559H13.4561H12.5531V9.45898H13.4561ZM13.4561 2.22559V3.12856H19.6289V2.22559V1.32261H13.4561V2.22559ZM19.6289 2.22559H18.7259V9.45898H19.6289H20.5319V2.22559H19.6289ZM3.98926 5.84277V4.9398H0.90332V5.84277V6.74575H3.98926V5.84277ZM0.90332 5.84277H1.80629V2.22559H0.90332H0.000347972V5.84277H0.90332ZM0.90332 2.22559V3.12856H3.98926V2.22559V1.32261H0.90332V2.22559ZM3.98926 2.22559H3.08629V5.84277H3.98926H4.89223V2.22559H3.98926ZM38.4102 5.84277V4.9398H35.3242V5.84277V6.74575H38.4102V5.84277ZM35.3242 5.84277H36.2272V2.22559H35.3242H34.4212V5.84277H35.3242ZM35.3242 2.22559V3.12856H38.4102V2.22559V1.32261H35.3242V2.22559ZM38.4102 2.22559H37.5072V5.84277H38.4102H39.3131V2.22559H38.4102Z" fill="#CFCFCF" mask="url(#path-1-outside-1_1690_14413)"/>
<path d="M323.493 0H332.392L340.932 31.0937H341.137V0H346.762V37.8443H337.864L329.272 6.95517H329.068V37.8443H323.493V0Z" fill="#CFCFCF"/>
<path d="M298.781 33.5485V0H305.43V31.8097L306.606 32.9859H311.413L312.64 31.8097V0H319.289V33.5485L314.993 37.8443H303.026L298.781 33.5485Z" fill="#CFCFCF"/>
<path d="M279.314 0H296.498V4.90953H285.963V16.6719H295.628V21.7349H285.963V37.8443H279.314V0Z" fill="#CFCFCF"/>
<path d="M244.274 0H260.588L264.833 4.29584V17.1322L261.56 20.4052L264.833 23.7294V37.8443H258.185V24.4965L256.446 22.8089H250.923V37.8443H244.274V0ZM256.395 17.9505L258.185 16.2117V6.03463L256.957 4.85839H250.923V17.9505H256.395Z" fill="#CFCFCF"/>
<path d="M218.764 33.5485V4.34698L223.008 0H235.845L240.141 4.29584V33.5485L235.845 37.8443H223.008L218.764 33.5485ZM232.316 32.9859L233.492 31.8097V6.03463L232.316 4.85839H226.588L225.412 6.03463V31.8097L226.588 32.9859H232.316Z" fill="#CFCFCF"/>
<path d="M199.297 0H216.48V4.90953H205.945V16.6719H215.611V21.7349H205.945V37.8443H199.297V0Z" fill="#CFCFCF"/>
<path d="M163.957 33.5485V4.29584L168.202 0H180.271L184.567 4.29584V11.0464H177.919V6.03463L176.742 4.85839H171.782L170.605 6.03463V31.8097L171.782 32.9859H177.049L178.225 31.8097V22.3997H174.645V17.6436H184.874V33.5485L180.578 37.8443H168.202L163.957 33.5485Z" fill="#CFCFCF"/>
<path d="M136.549 0H145.447L153.988 31.0937H154.192V0H159.818V37.8443H150.919L142.328 6.95517H142.123V37.8443H136.549V0Z" fill="#CFCFCF"/>
<path d="M125.771 0H132.42V37.8443H125.771V0Z" fill="#CFCFCF"/>
<path d="M100.76 0H117.329L121.574 4.29584V33.5485L117.329 37.8443H100.76V0ZM113.75 32.9859L114.926 31.8097V6.03463L113.75 4.85839H107.408V32.9859H113.75Z" fill="#CFCFCF"/>
<path d="M75.25 33.5485V4.34698L79.4947 0H92.3311L96.6269 4.29584V33.5485L92.3311 37.8443H79.4947L75.25 33.5485ZM88.8024 32.9859L89.9786 31.8097V6.03463L88.8024 4.85839H83.0746L81.8983 6.03463V31.8097L83.0746 32.9859H88.8024Z" fill="#CFCFCF"/>
<path d="M51.0381 33.5485V4.34698L55.2828 0H66.9941L71.2388 4.29584V13.3478H64.7439V6.03463L63.5676 4.85839H58.8627L57.6864 6.03463V31.8097L58.8627 32.9859H63.8233L64.9996 31.8097V23.3714H71.5456V33.5485L67.3009 37.8443H55.2828L51.0381 33.5485Z" fill="#CFCFCF"/>
</svg>
